<svg width="100" height="100" viewBox="0 0 100 100" fill="none" xmlns="http://www.w3.org/2000/svg">
<path d="M49.8187 75.2969C46.1191 75.3127 42.43 74.9006 38.825 74.0687C37.7534 73.827 36.7023 73.5021 35.6812 73.0969L38.2219 77.4375L39.2156 91C39.2156 92.5219 44.0469 93.7531 50.0031 93.7531C55.9594 93.7531 60.7906 92.5219 60.7906 91L61.5781 77.2906L63.9812 73.0844C62.9517 73.4961 61.8911 73.8252 60.8094 74.0687C57.2054 74.9004 53.5174 75.3125 49.8187 75.2969ZM64.0625 31.1656C59.398 31.7457 54.7003 32.0181 50 31.9813C45.2997 32.0181 40.602 31.7457 35.9375 31.1656C34.4559 30.9859 32.9923 30.6807 31.5625 30.2531C31.1902 30.1376 30.8292 29.988 30.4844 29.8063L32.8125 51.25C32.9208 50.8812 33.0417 50.5125 33.175 50.1437C33.4451 49.39 33.7581 48.6523 34.1125 47.9344C34.4629 47.2312 34.8552 46.5498 35.2875 45.8937C35.6953 45.2731 36.1464 44.6821 36.6375 44.125C37.0824 43.6165 37.5742 43.1509 38.1062 42.7344C38.5729 42.3679 39.0843 42.0623 39.6281 41.825C40.109 41.6187 40.6268 41.5124 41.15 41.5125C41.743 41.5161 42.324 41.6803 42.8312 41.9875C43.4474 42.3783 43.9668 42.9041 44.35 43.525C44.4525 43.6687 44.5229 43.8329 44.5562 44.0063C44.5843 44.1578 44.599 44.3115 44.6 44.4656C44.6161 44.7537 44.5298 45.0382 44.3562 45.2688C44.2891 45.3591 44.202 45.4326 44.1017 45.4835C44.0014 45.5345 43.8906 45.5615 43.7781 45.5625C43.6658 45.557 43.5562 45.526 43.4577 45.4719C43.3592 45.4177 43.2742 45.3418 43.2094 45.25C42.9864 44.9609 42.7897 44.6524 42.6219 44.3281C42.4625 44.0176 42.2324 43.7489 41.95 43.5438C41.7148 43.3844 41.4372 43.2995 41.1531 43.3C40.6304 43.3279 40.1301 43.5216 39.725 43.8531C39.164 44.275 38.659 44.7664 38.2219 45.3156C37.6919 45.9708 37.2144 46.6667 36.7937 47.3969C36.3426 48.1702 35.9398 48.9707 35.5875 49.7938C35.2494 50.5781 34.9705 51.3866 34.7531 52.2125C34.5592 52.91 34.4542 53.6293 34.4406 54.3531C34.4414 54.5705 34.456 54.7876 34.4844 55.0031C34.5091 55.212 34.5638 55.4162 34.6469 55.6094C34.7158 55.7801 34.8227 55.9329 34.9594 56.0562C35.1051 56.176 35.2896 56.2383 35.4781 56.2312C35.7611 56.2181 36.0367 56.1366 36.2812 55.9937C36.6126 55.8152 36.9265 55.6059 37.2187 55.3688C37.5576 55.0964 37.881 54.8053 38.1875 54.4969C38.5125 54.174 38.8146 53.8458 39.0937 53.5125C39.3729 53.1792 39.6208 52.8604 39.8375 52.5563C40.0217 52.3045 40.1848 52.038 40.325 51.7594L41.2125 49.1031C41.2863 48.8559 41.4347 48.6376 41.6375 48.4781C41.7945 48.363 41.9835 48.2997 42.1781 48.2969C42.2684 48.297 42.3582 48.3118 42.4437 48.3406C42.5363 48.3713 42.6209 48.4223 42.6912 48.4899C42.7615 48.5575 42.8157 48.6399 42.85 48.7313C42.8938 48.8448 42.915 48.9658 42.9125 49.0875C42.914 49.4295 42.8815 49.7707 42.8156 50.1063C42.7532 50.4233 42.6718 50.7364 42.5719 51.0437C42.474 51.3458 42.3646 51.649 42.2437 51.9531C42.1229 52.2573 42.0052 52.576 41.8906 52.9094C41.8344 53.0239 41.7884 53.1431 41.7531 53.2656C41.6865 53.474 41.6052 53.725 41.5094 54.0187C41.4135 54.3125 41.3094 54.65 41.1969 55.0313L40.8531 56.1719C40.7344 56.5594 40.6219 56.9396 40.5156 57.3125C40.4094 57.6854 40.3125 58.0229 40.225 58.325L40.0094 59.0812C39.9531 59.2844 39.9156 59.3937 39.9031 59.4437C39.8643 59.5815 39.8131 59.7153 39.75 59.8438C39.6807 59.9906 39.5981 60.1308 39.5031 60.2625C39.4147 60.3813 39.3094 60.4866 39.1906 60.575C39.0907 60.6567 38.9665 60.7029 38.8375 60.7063C38.7523 60.7134 38.6667 60.6985 38.589 60.6629C38.5112 60.6273 38.444 60.5723 38.3937 60.5031C38.281 60.2712 38.2335 60.0131 38.2562 59.7562V59.5969C38.2533 59.5407 38.2533 59.4843 38.2562 59.4281C38.2967 59.1972 38.3574 58.9703 38.4375 58.75C38.5271 58.4187 38.6312 58.0438 38.75 57.625C38.8687 57.2063 39.0021 56.7729 39.15 56.325C39.2937 55.8771 39.4229 55.476 39.5375 55.1219C39.2 55.499 38.8344 55.874 38.4406 56.2469C38.0592 56.6089 37.6542 56.945 37.2281 57.2531C36.837 57.5373 36.4182 57.7812 35.9781 57.9813C35.5985 58.1599 35.1852 58.2558 34.7656 58.2625C34.3624 58.2734 33.9642 58.1717 33.6156 57.9688C33.5562 57.9344 33.5031 57.8938 33.45 57.8531L34.7469 71.4531C35.0844 72.3 41.4406 74.3781 49.825 74.3781C58.2094 74.3781 64.5719 72.2969 64.9031 71.45L66.7781 55.2813L66.3312 55.6938C65.8491 56.1461 65.3443 56.5738 64.8187 56.975C64.3908 57.3061 63.9251 57.5851 63.4312 57.8062C62.9734 58.0034 62.4797 58.1034 61.9812 58.1C61.5826 58.1265 61.1869 58.0162 60.8594 57.7875C60.7294 57.6842 60.6258 57.5517 60.5568 57.4007C60.4878 57.2497 60.4555 57.0846 60.4625 56.9188V56.8344C60.4598 56.8021 60.4598 56.7697 60.4625 56.7375C60.5068 56.4595 60.6079 56.1936 60.7594 55.9563C60.9486 55.6384 61.1573 55.3326 61.3844 55.0406C61.626 54.724 61.8833 54.4031 62.1562 54.0781C62.4292 53.7531 62.6823 53.4458 62.9156 53.1563C63.1229 52.9015 63.3159 52.6355 63.4937 52.3594C63.6209 52.1874 63.6997 51.9846 63.7219 51.7719C63.7235 51.7309 63.7155 51.6901 63.6987 51.6527C63.6819 51.6153 63.6567 51.5823 63.625 51.5562C63.5323 51.4964 63.4224 51.469 63.3125 51.4781C63.0384 51.4826 62.769 51.55 62.525 51.675C62.2364 51.8183 61.9667 51.9967 61.7219 52.2062C61.4459 52.4408 61.1879 52.6957 60.95 52.9688C60.6996 53.2546 60.4639 53.5528 60.2437 53.8625C60.025 54.1708 59.825 54.4833 59.6437 54.8C59.4625 55.1167 59.3083 55.4052 59.1812 55.6656L59.0187 56.0156C58.9479 56.1656 58.8719 56.3354 58.7906 56.525C58.7094 56.7146 58.6219 56.9083 58.5281 57.1063C58.4365 57.3146 58.3521 57.5031 58.275 57.6719L58.0687 58.1469C58.0083 58.2865 57.9656 58.3823 57.9406 58.4344C57.9156 58.4865 57.8635 58.6146 57.7844 58.8188C57.7114 59.0063 57.6271 59.2271 57.5312 59.4813L57.2187 60.2781L56.9219 61.0687L56.6781 61.725C56.6094 61.9125 56.5625 62.0375 56.5437 62.1094C56.4822 62.2989 56.407 62.4838 56.3187 62.6625C56.2386 62.827 56.1389 62.9812 56.0219 63.1219C55.915 63.2485 55.7858 63.3544 55.6406 63.4344C55.4931 63.5148 55.3273 63.5557 55.1594 63.5531C54.9572 63.5618 54.7577 63.5047 54.5906 63.3906C54.5068 63.3113 54.4428 63.2134 54.4038 63.1049C54.3647 62.9963 54.3516 62.8801 54.3656 62.7656C54.366 62.6098 54.3849 62.4545 54.4219 62.3031C54.4605 62.1442 54.5085 61.9876 54.5656 61.8344C54.6219 61.6781 54.6812 61.5219 54.7437 61.3813C54.8062 61.2406 54.8594 61.0938 54.9094 60.9563C55.2531 60.2021 55.6031 59.4469 55.9594 58.6906C56.3156 57.9344 56.6573 57.1844 56.9844 56.4406C57.0531 56.2844 57.1156 56.1281 57.1812 55.9812L57.1219 56.0406C56.7284 56.4193 56.3109 56.7721 55.8719 57.0969C55.4922 57.3831 55.0825 57.6273 54.65 57.825C54.2809 57.9979 53.8794 58.0906 53.4719 58.0969C53.2476 58.1039 53.0246 58.0612 52.8187 57.9719C52.6532 57.8961 52.5092 57.7801 52.4 57.6344C52.2905 57.482 52.2139 57.3086 52.175 57.125C52.175 57.0594 52.15 56.9875 52.1406 56.9188C52.0281 57.0063 51.9156 57.0906 51.8031 57.1719C51.4376 57.4335 51.0471 57.6586 50.6375 57.8438C50.3151 57.9989 49.9638 58.0851 49.6062 58.0969C49.4671 58.1009 49.3288 58.0751 49.2005 58.0212C49.0722 57.9673 48.957 57.8865 48.8625 57.7844C48.6425 57.4845 48.5412 57.1138 48.5781 56.7438C48.5858 56.3363 48.6371 55.9309 48.7312 55.5344C48.5496 55.8501 48.3405 56.1492 48.1062 56.4281C47.8538 56.7332 47.5688 57.0099 47.2562 57.2531C46.9311 57.5049 46.5711 57.7081 46.1875 57.8563C45.7766 58.0134 45.3399 58.0919 44.9 58.0875C44.6953 58.0885 44.4915 58.0622 44.2937 58.0094C44.1054 57.959 43.9311 57.866 43.7844 57.7375C43.6283 57.5953 43.5074 57.4188 43.4312 57.2219C43.3342 56.9634 43.2886 56.6885 43.2969 56.4125C43.2969 56.4125 43.2969 56.2906 43.3344 56.0687C43.3899 55.7133 43.4713 55.3623 43.5781 55.0188C43.7156 54.5396 43.924 53.9146 44.2031 53.1438C44.4823 52.3729 44.8865 51.45 45.4156 50.375C45.5133 50.1303 45.6726 49.915 45.8781 49.75C46.0429 49.6286 46.2422 49.5629 46.4469 49.5625C46.541 49.5635 46.6345 49.5771 46.725 49.6031C46.8209 49.6295 46.9117 49.6718 46.9937 49.7281C47.0755 49.7843 47.1438 49.858 47.1937 49.9438C47.2475 50.0389 47.2734 50.1471 47.2687 50.2563C47.2694 50.3291 47.26 50.4017 47.2406 50.4719C47.1898 50.6464 47.1207 50.815 47.0344 50.975C46.9302 51.1833 46.8073 51.4208 46.6656 51.6875C46.5239 51.9542 46.376 52.2427 46.2219 52.5531C46.0656 52.8615 45.9208 53.1813 45.7875 53.5125C45.6542 53.8433 45.5394 54.1814 45.4437 54.525C45.351 54.8509 45.2965 55.1865 45.2812 55.525C45.2804 55.6553 45.3138 55.7835 45.3781 55.8969C45.4091 55.9515 45.4548 55.9963 45.5101 56.0262C45.5654 56.056 45.6279 56.0697 45.6906 56.0656C46.1188 56.0609 46.5341 55.9185 46.875 55.6594C47.267 55.3716 47.6172 55.0309 47.9156 54.6469C48.2375 54.2374 48.5259 53.8026 48.7781 53.3469C49.0365 52.8844 49.251 52.4604 49.4219 52.075C49.5447 51.8075 49.6492 51.5318 49.7344 51.25C49.8241 50.9738 49.9284 50.7026 50.0469 50.4375C50.1397 50.2122 50.265 50.0016 50.4187 49.8125C50.4813 49.7335 50.5612 49.6698 50.6522 49.6265C50.7432 49.5832 50.8429 49.5613 50.9437 49.5625C51.0486 49.5586 51.1528 49.5802 51.2475 49.6254C51.3422 49.6706 51.4245 49.738 51.4875 49.8219C51.6235 50.0013 51.694 50.2218 51.6875 50.4469C51.6755 50.6391 51.6322 50.828 51.5594 51.0063C51.474 51.2438 51.3698 51.5146 51.2469 51.8188C51.124 52.1229 50.9823 52.449 50.8219 52.7969C50.6698 53.1448 50.5281 53.4969 50.3969 53.8531C50.2745 54.1974 50.1701 54.5479 50.0844 54.9031C50.0026 55.2154 49.9596 55.5366 49.9562 55.8594C49.9493 55.9155 49.9555 55.9724 49.9742 56.0258C49.993 56.0791 50.0239 56.1273 50.0645 56.1667C50.1051 56.2061 50.1542 56.2355 50.2081 56.2527C50.262 56.2698 50.3191 56.2743 50.375 56.2656C50.6313 56.2502 50.8815 56.181 51.1094 56.0625C51.4364 55.9057 51.7455 55.714 52.0312 55.4906C52.1125 55.4281 52.1937 55.3656 52.2719 55.3C52.3527 54.9527 52.4571 54.6113 52.5844 54.2781C52.8073 53.6906 53.0333 53.1063 53.2625 52.525L53.8875 50.9313L56.7781 43.6406C56.8601 43.3875 57.0225 43.168 57.2406 43.0156C57.4154 42.9009 57.6191 42.8381 57.8281 42.8344C58.0239 42.8341 58.2137 42.9015 58.3656 43.025C58.4524 43.1028 58.5196 43.1999 58.562 43.3085C58.6043 43.417 58.6205 43.534 58.6094 43.65C58.6071 43.7963 58.5796 43.9412 58.5281 44.0781C58.4677 44.244 58.3988 44.4067 58.3219 44.5656C58.1635 44.9198 57.974 45.3531 57.7531 45.8656C57.5323 46.3781 57.2969 46.9354 57.0469 47.5375C56.7948 48.1396 56.5375 48.7646 56.275 49.4125L55.5031 51.3156C55.2531 51.9406 55.0177 52.526 54.7969 53.0719L54.2281 54.5125C54.1492 54.711 54.0804 54.9133 54.0219 55.1188C53.959 55.3213 53.9253 55.5317 53.9219 55.7437C53.9172 55.8377 53.9366 55.9313 53.9781 56.0156C54.0013 56.0516 54.034 56.0803 54.0727 56.0986C54.1114 56.1168 54.1544 56.1238 54.1969 56.1188C54.3715 56.1074 54.5419 56.0595 54.6969 55.9781C54.9223 55.8702 55.1396 55.7459 55.3469 55.6063C55.5802 55.4521 55.8219 55.275 56.0719 55.075C56.3219 54.875 56.5719 54.6667 56.8219 54.45C57.0698 54.2417 57.3073 54.0271 57.5344 53.8063C57.7614 53.5854 57.9635 53.3875 58.1406 53.2125C58.1823 53.1704 58.2324 53.1374 58.2875 53.1156C58.3937 52.8031 58.4937 52.4906 58.5781 52.1781C58.6281 52.0427 58.6979 51.85 58.7875 51.6C58.8793 51.3501 58.9836 51.105 59.1 50.8656C59.2043 50.6429 59.3343 50.4331 59.4875 50.2406C59.542 50.1681 59.6122 50.1088 59.6928 50.0671C59.7734 50.0254 59.8624 50.0025 59.9531 50C60.0523 49.991 60.1523 50.0018 60.2473 50.0319C60.3423 50.0619 60.4303 50.1106 60.5062 50.175C60.5675 50.2453 60.6143 50.3271 60.6438 50.4156C60.6733 50.5041 60.6849 50.5976 60.6781 50.6906C60.676 50.7628 60.6698 50.8348 60.6594 50.9063C60.6594 51.0031 60.6312 51.1094 60.6125 51.2187C60.5937 51.3281 60.5719 51.4312 60.55 51.5312C60.5349 51.6047 60.514 51.6768 60.4875 51.7469C60.7229 51.4906 60.9771 51.2365 61.25 50.9844C61.5171 50.7368 61.8011 50.5081 62.1 50.3C62.3808 50.1035 62.6814 49.937 62.9969 49.8031C63.2863 49.6791 63.5976 49.6143 63.9125 49.6125C64.1241 49.6128 64.3345 49.6433 64.5375 49.7031C64.7357 49.7593 64.9228 49.8491 65.0906 49.9688C65.2531 50.0853 65.3885 50.2356 65.4875 50.4094C65.5939 50.6001 65.6468 50.8161 65.6406 51.0344C65.6331 51.3774 65.5532 51.715 65.4062 52.025C65.2405 52.393 65.044 52.7463 64.8187 53.0813C64.5833 53.4354 64.3292 53.7802 64.0562 54.1156C63.7833 54.451 63.5271 54.7563 63.2875 55.0313L62.6844 55.7312C62.572 55.841 62.4855 55.9745 62.4312 56.1219C62.4299 56.2045 62.4614 56.2843 62.5187 56.3438C62.6 56.4081 62.7031 56.4383 62.8062 56.4281C62.9776 56.4061 63.1414 56.344 63.2844 56.2469C63.5917 56.0583 63.8861 55.8495 64.1656 55.6219C64.5448 55.324 65.025 54.925 65.6062 54.425C66.0062 54.0813 66.4719 53.6719 67 53.2062L69.525 29.8312C69.1802 30.0131 68.8192 30.1627 68.4469 30.2781C67.0132 30.6978 65.5465 30.9947 64.0625 31.1656ZM50 25.625C39.0875 25.625 30.2437 26.8437 30.2437 28.35C30.2437 29.8562 39.0625 31.0688 50 31.0688C60.9375 31.0688 69.7562 29.85 69.7562 28.3437C69.7562 26.8375 60.9 25.625 50 25.625ZM57.8875 29.1469C57.8875 29.5 56.8375 29.7719 55.5406 29.7719C54.2437 29.7719 53.1937 29.4844 53.1937 29.1469C53.1937 28.8094 54.2437 28.5219 55.5406 28.5219C56.8375 28.5219 57.8781 28.7875 57.8781 29.1406L57.8875 29.1469Z" fill="#DA4648"/>
<path d="M53.6563 28.8562C53.6448 28.8728 53.6383 28.8923 53.6375 28.9125C53.6375 29.1406 54.4844 29.325 55.5125 29.325C56.5406 29.325 57.3875 29.1406 57.3875 28.9125L59.8563 18.9125L69.675 8.54685C69.8813 8.31247 69.4625 7.58435 68.7625 6.95935C68.0625 6.33435 67.3063 6.12497 67.0719 6.36247L56.6313 17.3718L53.6563 28.8562Z" fill="#DA4648"/>
</svg>
