<svg width="79" height="79" viewBox="0 0 79 79" fill="none" xmlns="http://www.w3.org/2000/svg">
<rect x="22" y="33" width="47" height="36" fill="black"/>
<path d="M4.9375 4.9375V74.0625H74.0625V4.9375H4.9375ZM41.9688 58.6328C41.9688 65.3617 37.9941 68.6421 32.2403 68.6421C27.0436 68.6421 24.0271 65.9511 22.4965 62.7032L27.7858 59.5015C28.8057 61.3114 29.5803 62.842 31.8068 62.842C33.6583 62.842 35.1797 62.0073 35.1797 58.7593V37.0312H41.9688V58.6328ZM57.2981 68.4878C51.2667 68.4878 47.3691 65.766 45.4667 62.0073L50.7637 58.9414C52.1523 61.2157 53.9653 62.7309 57.167 62.7309C59.8579 62.7309 61.421 61.5398 61.421 59.6836C61.421 57.4571 59.8116 56.6686 56.8414 55.3633L55.2182 54.6658C50.5307 52.6723 47.4231 50.1665 47.4231 44.8757C47.4231 40.0046 51.134 36.4465 56.934 36.4465C61.0645 36.4465 64.0317 37.7302 66.1687 41.4889L61.1016 44.7461C59.9875 42.751 58.7871 41.9688 56.9263 41.9688C55.0238 41.9688 53.8172 43.1754 53.8172 44.7461C53.8172 46.6949 55.0238 47.4833 57.8073 48.6899L59.4305 49.3858C64.9528 51.7527 68.0619 54.169 68.0619 59.5941C68.0634 65.4419 63.47 68.4878 57.2981 68.4878Z" fill="#FDE93B"/>
</svg>
