<svg width="83" height="83" viewBox="0 0 83 83" fill="none" xmlns="http://www.w3.org/2000/svg">
<g clip-path="url(#clip0_13_4)">
<path d="M81.9576 38.0341C81.4259 37.4619 77.6099 32.7996 75.5527 30.2869C74.4585 28.9511 73.5944 27.8958 73.2313 27.4581L73.2021 27.4224L73.1697 27.3884C72.3235 26.4433 71.1206 25.3604 69.3147 25.3604C69.0211 25.3642 68.7281 25.388 68.4377 25.4317C68.3777 25.4398 68.3161 25.4496 68.2513 25.456C67.8541 25.4998 66.6205 25.6992 63.6895 26.1823C61.42 26.5535 57.9979 27.1177 57.4791 27.1663L57.364 27.176L57.2522 27.1971C55.6311 27.4856 54.5579 28.2054 54.0813 29.3353C53.83 29.9319 53.5593 31.1428 54.5579 32.5548C54.8059 32.9147 55.6651 34.1046 57.1419 36.1488C58.1243 37.5105 59.2283 39.0376 60.1815 40.3636L42.1322 44.5801L24.4234 15.5706L24.391 15.5155L24.3537 15.462L24.2824 15.3566C23.5577 14.2932 22.6564 12.9688 20.0529 12.9688C19.8697 12.9688 19.6785 12.9688 19.4645 12.9866C18.7188 13.0271 15.9921 13.2411 12.8358 13.4907C9.35208 13.7647 4.58445 14.1392 3.96519 14.1554H3.84685L3.71878 14.1684C2.2371 14.3126 1.16232 14.9141 0.525228 15.9516C-0.536588 17.6845 0.295033 19.6298 0.567377 20.2685C1.11369 21.5605 6.08882 32.049 10.4771 41.3071C13.3951 47.4575 16.4071 53.8171 16.6535 54.3812C17.0868 55.435 17.8286 56.3332 18.7816 56.9578C19.7346 57.5825 20.8542 57.9043 21.9934 57.8811C22.531 57.8787 23.0668 57.819 23.5918 57.7028H23.6258L23.6582 57.6947C25.9051 57.1468 33.033 55.3377 38.1184 54.0327C38.4264 54.5709 38.7506 55.1399 39.091 55.7251C42.6461 61.9663 45.235 66.4811 46.0877 67.6337C46.5254 68.248 47.8223 70.0312 50.2636 70.0312C51.1487 70.0312 51.9593 69.8043 52.8152 69.5628L53.0633 69.493H53.0827C54.7897 69.0067 77.511 61.0374 78.6749 60.5203L78.7106 60.5041C79.5925 60.1134 80.925 59.5233 81.3335 58.0076C81.601 57.0155 81.3627 56.0088 80.6235 55.0151L80.6121 55.0005L80.6008 54.9859C80.463 54.8076 79.9523 54.1413 79.2601 53.2189C77.7801 51.2622 75.389 48.1011 73.288 45.3501C76.1039 44.6206 79.5779 43.7112 80.3203 43.4777C82.1797 42.9217 82.7422 41.7448 82.9141 41.0899C83.0421 40.5792 83.2091 39.2742 81.9576 38.0341ZM30.0826 47.4672C27.1955 48.1432 25.1837 48.615 23.9403 48.91C22.859 46.7475 20.7403 42.4824 18.6718 38.3194C13.8506 28.6058 11.3606 23.6047 10.0508 20.9899L11.372 20.8764C13.5345 20.69 16.4962 20.4355 18.1449 20.2977C20.8618 24.8789 30.1929 40.61 33.756 46.6081L30.0826 47.4672ZM58.964 58.2702C55.0394 59.5671 52.9125 60.2755 51.7631 60.6597C50.7419 58.9835 48.495 55.2258 46.4994 51.875L65.2555 47.096C66.066 48.2 67.6174 50.2928 70.6797 54.3796C67.7504 55.3587 62.866 56.9766 58.964 58.2702ZM68.0211 38.5529L64.1694 33.4415C66.3854 33.0541 67.6612 32.8304 68.4085 32.6958L70.3538 35.108L72.2894 37.5105C70.9601 37.8331 69.4136 38.2108 68.0211 38.5529Z" fill="#FF2121"/>
</g>
<defs>
<clipPath id="clip0_13_4">
<rect width="83" height="83" fill="white"/>
</clipPath>
</defs>
</svg>
