<svg width="103" height="103" viewBox="0 0 103 103" fill="none" xmlns="http://www.w3.org/2000/svg">
<g clip-path="url(#clip0_2_89)">
<path d="M34.264 70.3715C33.7812 67.2211 32.4534 64.6622 29.2307 63.4248C27.9693 62.942 26.877 62.0609 25.6337 61.5057C24.2215 60.872 22.7851 60.2684 21.2944 59.8762C20.1659 59.5744 19.1157 60.0814 18.4458 61.0711C17.8122 62.0005 18.2708 62.8756 18.8019 63.6542C19.3994 64.5293 20.0633 65.3621 20.7332 66.1829C21.8436 67.5468 23.0205 68.8565 24.1008 70.2387C25.1328 71.5604 26.0139 73.027 25.863 74.7772C25.5311 78.6155 23.793 81.7962 20.9927 84.3851C20.6849 84.6627 20.1417 84.8619 19.7434 84.8257C17.957 84.6326 16.3335 83.9566 15.0239 82.7074C13.5212 81.277 13.7505 79.5932 15.549 78.5491C15.9775 78.3017 16.4241 78.0724 16.8164 77.7706C17.9147 76.9438 18.2829 75.5316 17.6854 74.3064C17.4018 73.715 17.0819 73.0752 16.6112 72.6468C14.3118 70.5526 12.0544 68.3918 9.59207 66.4849C3.6231 61.8497 0.557439 55.7181 0.0864953 48.2947C-0.444598 40.0505 1.46855 32.3556 5.81989 25.3124C7.46749 22.6388 9.38667 20.0918 12.3318 18.7703C14.3355 17.8711 16.5323 17.3641 18.675 16.8028C24.5715 15.2518 30.522 14.087 36.6599 15.1251C41.9467 16.0122 45.8155 18.7341 47.5898 23.9304C48.7546 27.3282 49.0322 30.8406 48.6701 34.4378C47.958 41.5051 42.7375 47.824 35.9297 49.6949C32.9785 50.5036 31.3671 50.0509 29.5928 47.5946C28.3194 45.8263 27.2632 43.9011 26.1226 42.036C25.9536 41.7584 25.8329 41.4386 25.688 41.1428C25.5492 40.8471 25.3983 40.5635 25.2535 40.2677C25.682 43.3336 26.3941 46.285 28.0659 48.9161C28.9712 50.3465 30.1782 51.4026 31.9465 51.5595C38.4524 52.1449 43.9446 50.0085 47.8433 44.7758C52.2067 38.9215 53.1665 32.1863 51.905 25.095C51.6575 23.6948 51.2411 22.3248 50.9454 20.9307C50.7462 20.0315 51.1023 19.3676 51.9894 19.0538C52.3998 18.915 52.8223 18.8003 53.2327 18.7158C58.5559 17.5691 63.9393 17.1889 69.3649 17.7381C75.5209 18.3537 81.3448 20.0435 86.5532 23.4657C94.7069 28.8309 99.7583 36.4656 102.504 45.6996C102.903 47.0394 102.963 48.5059 102.999 49.9184C103.023 50.8598 102.42 51.1073 101.702 50.5158C100.911 49.8701 100.187 49.1338 99.5048 48.3734C98.8711 47.6552 98.3642 46.8344 97.7486 46.08C97.2718 45.4886 96.8554 45.5791 96.6261 46.3154C96.4812 46.762 96.3545 47.2025 96.2277 47.6491C94.8034 52.7307 92.5584 57.3657 88.9192 61.2707C88.4122 61.8199 87.9596 62.6346 87.8992 63.3589C87.7423 65.3625 87.6276 67.4084 87.8208 69.4061C88.2191 73.6973 88.8407 77.97 89.3235 82.2551C89.5951 84.6752 88.8166 86.0995 86.5413 86.9386C84.942 87.524 83.228 87.9525 81.5382 88.0732C78.8465 88.2603 76.1307 88.1275 73.4269 88.1275C73.3545 85.11 73.614 82.1465 70.7775 80.5291C71.3267 78.29 71.9604 76.1656 72.3406 73.993C72.6544 72.1885 72.3889 70.4142 71.1215 68.9355C69.9326 67.5414 68.4419 67.1612 67.0777 67.9578C62.9678 70.3538 58.6947 70.3659 54.3434 68.7967C52.3457 68.0725 50.9516 68.4829 49.847 70.3055C48.658 72.2669 48.1571 74.4698 48.2899 76.6969C48.4589 79.5033 48.9477 82.2795 49.3219 85.0737C49.5271 86.6368 49.3521 87.0412 47.801 87.4395C44.355 88.3146 40.8485 88.4112 37.3238 88.1275C37.1367 88.1094 36.9496 88.031 36.8289 88.0008C36.6539 85.0737 36.9617 82.0318 33.4734 80.4748C35.0184 77.1977 34.8072 73.7999 34.2761 70.4021L34.264 70.3719V70.3715ZM13.4304 58.8866C13.9434 58.4038 14.3538 57.6494 14.4986 56.9553C14.8608 55.2172 13.5572 52.8876 12.0484 52.2419C11.2457 51.8918 10.5456 52.0186 9.97832 52.6583C8.59627 54.2214 7.23232 55.8026 5.87421 57.3901C5.64487 57.6617 5.43968 57.9815 5.27673 58.3014C4.73357 59.3455 5.05343 60.1059 6.21218 60.3896C6.91226 60.5646 7.63648 60.6008 8.35466 60.7034C10.2256 60.5223 12.0361 60.2085 13.4302 58.8928V58.8868L13.4304 58.8866ZM13.5873 41.5112C13.5813 40.2679 12.5433 39.2299 11.3181 39.2239C10.0568 39.2178 8.97045 40.3464 9.01269 41.5896C9.06701 42.8389 10.1051 43.8408 11.3483 43.8166C12.6036 43.7985 13.6054 42.7725 13.5934 41.5172L13.5873 41.5112Z" fill="#3563BD"/>
</g>
<defs>
<clipPath id="clip0_2_89">
<rect width="103" height="103" fill="white"/>
</clipPath>
</defs>
</svg>
