<svg width="114" height="78" viewBox="0 0 114 78" fill="none" xmlns="http://www.w3.org/2000/svg">
<path d="M113.951 54.7453C113.627 52.1145 112.294 49.8324 109.979 47.9542C109.95 47.9192 109.918 47.8867 109.884 47.8571L109.767 47.7733L109.729 47.7468L108.5 46.864L108.458 46.8331L108.301 46.7227C108.244 46.6892 108.182 46.6632 108.118 46.6455C104.229 44.3303 97.7915 42.7081 87.9416 46.1842C85.5911 42.2292 85.324 39.0599 86.8976 34.2044C87.1779 33.3591 86.9175 32.8008 86.0788 32.4388C84.3926 31.7215 82.0841 32.0879 80.4465 32.5205C79.6828 32.7191 79.2238 33.1517 79.0781 33.8072C78.0408 38.6626 75.026 43.0988 72.1105 47.3804L71.9384 47.632C70.1419 43.8227 70.5148 40.8719 71.7662 37.1751C72.0156 36.4379 71.8192 35.948 71.1284 35.5816C69.1994 34.5862 66.306 35.2704 65.154 35.6103C63.6929 36.0363 62.1259 39.9846 60.3757 44.7121C59.9343 45.9017 59.5547 46.9191 59.3274 47.3937C58.7867 48.4972 58.2702 49.7552 57.7229 51.0904C56.4869 54.1119 55.0943 57.5129 53.1036 59.6493C52.3797 58.0492 53.5185 55.5266 54.6242 53.079C55.933 50.1855 57.1689 47.451 55.7454 45.7053C55.5203 45.4293 55.241 45.2023 54.9248 45.0383C54.6086 44.8743 54.2622 44.7768 53.9069 44.7518C53.4434 44.7165 52.9781 44.7922 52.5496 44.9725C52.6975 43.7256 52.7041 42.7412 52.3399 41.5516C51.8191 39.8544 50.4662 38.9032 48.6034 38.954C44.3615 39.0775 40.7729 42.238 38.5063 44.8688C36.9967 46.6344 33.6508 47.9807 30.7132 49.1615C29.5523 49.6536 28.4488 50.0951 27.5285 50.5365C26.0608 49.2961 24.1959 48.0447 22.2316 46.7227C16.714 43.0193 10.4615 38.8193 10.2452 33.1252C9.93625 24.7142 19.5148 18.7486 27.875 14.4912C34.2114 11.269 39.7201 9.13255 44.7169 7.96503C51.7352 6.32521 57.6633 6.65626 62.3334 8.94495C64.8891 10.1963 66.0853 12.9176 65.3261 15.7161C63.3398 22.9883 55.1098 27.9718 48.0715 30.2141C43.8318 31.5648 40.2233 32.1298 37.0364 31.9444C33.0417 31.7127 29.7797 29.7087 28.3848 28.8546C28.1613 28.702 27.925 28.569 27.6786 28.4573L27.6146 28.4419C27.4883 28.4104 27.3557 28.4144 27.2315 28.4533C27.1073 28.4923 26.9963 28.5647 26.9105 28.6626C26.6236 29.0047 26.7251 29.5454 26.8289 29.8191C28.1862 33.3658 30.9891 35.6059 35.1582 36.4777C36.5226 36.7509 37.9115 36.8833 39.303 36.8727C49.0603 36.8727 61.5102 31.247 66.0831 26.6144C69.2017 23.4584 71.4727 20.2141 72.4129 14.6192C73.395 8.75956 69.4224 4.68759 65.3747 2.81161C55.5379 -1.72825 44.3659 0.0660683 36.7252 2.37021C27.7867 5.06499 18.5393 9.9646 11.3576 15.8177C2.50297 23.028 -0.69723 29.7219 1.84086 35.7361C4.44736 41.9003 10.8036 45.756 16.9502 49.4859C18.9365 50.6887 20.8257 51.8342 22.5274 53.0172C22.0153 53.2666 21.4923 53.5204 20.9604 53.7742C15.8003 56.2747 9.94728 59.0887 6.70074 63.7389C4.34363 67.1267 3.90222 70.4991 5.38976 73.7633C6.18429 75.5002 7.59679 76.6787 9.55884 77.2658C10.5795 77.555 11.6365 77.6955 12.6972 77.6829C16.5176 77.6829 20.722 76.138 23.0107 74.7101C27.054 72.172 29.6737 68.7643 30.7993 64.582C31.8013 60.861 31.5607 57.1642 30.1041 53.8647L35.0589 51.3663C32.6687 59.3116 34.5005 64.0567 36.5133 66.6743C37.2549 67.6387 38.5923 68.2192 40.0865 68.2457C41.5807 68.2722 42.9556 67.7094 43.7325 66.7515C45.2024 64.9307 46.2883 62.8009 47.288 60.6711C47.2351 62.0616 47.3013 63.4697 47.7758 64.6637C48.2018 65.7385 48.9036 66.4514 49.8085 66.725C50.7707 67.0186 51.8985 66.7714 52.9844 66.0298C57.8774 62.6818 61.2232 54.646 63.9114 48.186C64.2932 47.2678 64.6596 46.385 65.0149 45.5596C65.68 47.9397 66.6051 50.2393 67.7737 52.4168C68.0341 52.8892 68.0121 53.0966 67.6589 53.4851C67.127 54.0677 66.3855 54.7718 65.5998 55.5177C63.2206 57.7755 60.2588 60.5939 59.8615 63.0724C59.707 64.0656 60.3912 64.9704 61.4528 65.1757C64.6463 65.8113 68.4932 64.8822 71.7464 62.6928C74.7038 60.7065 75.8161 57.9366 75.0569 54.4848C74.322 51.1611 75.9993 47.0339 80.0426 42.2093C80.7047 44.9747 81.5875 47.2105 82.8058 49.1681L82.7727 49.1946C79.8285 51.7658 75.7941 55.286 76.4209 59.5566C76.4734 59.9627 76.6101 60.3535 76.8222 60.7038C77.0342 61.0542 77.317 61.3565 77.6524 61.5915C78.0108 61.8335 78.4154 61.9988 78.8408 62.077C79.2662 62.1553 79.7031 62.1448 80.1243 62.0461C83.9799 61.2361 86.8822 59.6051 88.9921 57.0648C91.102 54.5246 90.3318 51.7084 89.6211 49.5234C95.1387 48.0271 100.052 48.0646 104.651 49.6338C107.233 50.5166 109.085 51.9666 110.153 53.9684C111.497 56.4866 110.771 58.8106 108.103 60.5122C107.284 61.0353 106.889 61.3553 106.865 61.7592C106.859 61.8529 106.876 61.9466 106.915 62.0323C106.953 62.1179 107.012 62.1931 107.085 62.2514C107.394 62.5052 108.348 62.9466 110.504 61.5893C112.49 60.3423 113.656 58.6451 113.954 56.5131C114.014 55.9253 114.013 55.3329 113.951 54.7453ZM25.7298 60.2761L25.7077 60.5586C25.3634 63.7897 23.7214 66.6059 20.8191 68.9453C18.9961 70.4152 17.0164 71.3179 15.2464 71.49C14.0104 71.6092 13.1122 71.4415 12.5781 70.989C12.1786 70.6513 11.9645 70.1459 11.916 69.4441C11.554 63.8206 20.3733 58.2324 25.3369 56.3939C25.6911 57.6556 25.8241 58.9691 25.7298 60.2761ZM48.3187 44.4164C47.5021 49.071 45.1207 57.8572 41.3776 61.267C41.1988 61.4304 41.0488 61.4877 40.9803 61.4723C40.9119 61.4568 40.859 61.3752 40.8038 61.2516C39.5546 58.356 40.0159 53.4652 41.9073 49.6227C43.3617 46.6609 45.4385 44.6989 47.7603 44.1052C47.8567 44.0786 47.9561 44.0645 48.0561 44.0632C48.1343 44.0577 48.212 44.0787 48.2768 44.1228C48.3041 44.166 48.322 44.2145 48.3292 44.2651C48.3364 44.3157 48.3329 44.3672 48.3187 44.4164ZM66.7452 61.384C66.0412 62.119 65.0767 62.0196 65.304 61.7504L68.8883 57.9455C68.5991 59.2542 67.745 60.3379 66.7452 61.384ZM81.614 58.0933C81.2731 58.2613 80.9043 58.3653 80.5259 58.4001C80.4244 56.3983 82.3644 54.145 84.2779 52.642C84.7921 54.7298 83.7394 56.9368 81.614 58.0933Z" fill="#ED4FFB"/>
</svg>
