<svg xmlns="http://www.w3.org/2000/svg">
    <symbol id='html' viewBox="0 0 68 79">
        <path
            d="M0 0L6.1418 70.8768L33.7096 78.75L61.3477 70.8662L67.5 0H0ZM54.1406 23.2031H21.7969L22.5 32.168H53.4375L51.0627 58.7795L33.75 63.7172L16.4039 58.7953L15.2121 45.1758H23.6953L24.2965 52.0822L33.75 54.6803L43.1402 52.0576L44.1211 40.7812H14.7656L12.5525 14.4861H54.8789L54.1406 23.2031Z"
            fill="#CE6300" />
    </symbol>
    <symbol id='css' viewBox="0 0 68 79">
        <path
            d="M0 0.875L6.01562 70.1784L32.9605 77.875L59.9844 70.1664L66 0.875H0ZM49.9606 58.4359L33.012 63.2656L16.0892 58.4119L14.9291 45.0469H23.2237L23.8133 51.8462L33.0241 54.4519L33.0464 54.5L42.2366 51.9477L43.2059 40.9219H23.8906L23.2031 32.3281H43.9398L44.6875 23.5625H13.0625L12.375 15.1406H53.7247L49.9606 58.4359Z"
            fill="#3864FF" />
    </symbol>
    <symbol id='js' viewBox="0 0 79 79">
        <rect x="22" y="33" width="47" height="36" fill="black" />
        <path
            d="M4.9375 4.9375V74.0625H74.0625V4.9375H4.9375ZM41.9688 58.6328C41.9688 65.3617 37.9941 68.6421 32.2403 68.6421C27.0436 68.6421 24.0271 65.9511 22.4965 62.7032L27.7858 59.5015C28.8057 61.3114 29.5803 62.842 31.8068 62.842C33.6583 62.842 35.1797 62.0073 35.1797 58.7593V37.0312H41.9688V58.6328ZM57.2981 68.4878C51.2667 68.4878 47.3691 65.766 45.4667 62.0073L50.7637 58.9414C52.1523 61.2157 53.9653 62.7309 57.167 62.7309C59.8579 62.7309 61.421 61.5398 61.421 59.6836C61.421 57.4571 59.8116 56.6686 56.8414 55.3633L55.2182 54.6658C50.5307 52.6723 47.4231 50.1665 47.4231 44.8757C47.4231 40.0046 51.134 36.4465 56.934 36.4465C61.0645 36.4465 64.0317 37.7302 66.1687 41.4889L61.1016 44.7461C59.9875 42.751 58.7871 41.9688 56.9263 41.9688C55.0238 41.9688 53.8172 43.1754 53.8172 44.7461C53.8172 46.6949 55.0238 47.4833 57.8073 48.6899L59.4305 49.3858C64.9528 51.7527 68.0619 54.169 68.0619 59.5941C68.0634 65.4419 63.47 68.4878 57.2981 68.4878Z"
            fill="#FDE93B" />
    </symbol>
    <symbol id='scss' viewBox="0 0 114 78">
        <path
            d="M113.951 54.7453C113.627 52.1145 112.294 49.8324 109.979 47.9542C109.95 47.9192 109.918 47.8867 109.884 47.8571L109.767 47.7733L109.729 47.7468L108.5 46.864L108.458 46.8331L108.301 46.7227C108.244 46.6892 108.182 46.6632 108.118 46.6455C104.229 44.3303 97.7915 42.7081 87.9416 46.1842C85.5911 42.2292 85.324 39.0599 86.8976 34.2044C87.1779 33.3591 86.9175 32.8008 86.0788 32.4388C84.3926 31.7215 82.0841 32.0879 80.4465 32.5205C79.6828 32.7191 79.2238 33.1517 79.0781 33.8072C78.0408 38.6626 75.026 43.0988 72.1105 47.3804L71.9384 47.632C70.1419 43.8227 70.5148 40.8719 71.7662 37.1751C72.0156 36.4379 71.8192 35.948 71.1284 35.5816C69.1994 34.5862 66.306 35.2704 65.154 35.6103C63.6929 36.0363 62.1259 39.9846 60.3757 44.7121C59.9343 45.9017 59.5547 46.9191 59.3274 47.3937C58.7867 48.4972 58.2702 49.7552 57.7229 51.0904C56.4869 54.1119 55.0943 57.5129 53.1036 59.6493C52.3797 58.0492 53.5185 55.5266 54.6242 53.079C55.933 50.1855 57.1689 47.451 55.7454 45.7053C55.5203 45.4293 55.241 45.2023 54.9248 45.0383C54.6086 44.8743 54.2622 44.7768 53.9069 44.7518C53.4434 44.7165 52.9781 44.7922 52.5496 44.9725C52.6975 43.7256 52.7041 42.7412 52.3399 41.5516C51.8191 39.8544 50.4662 38.9032 48.6034 38.954C44.3615 39.0775 40.7729 42.238 38.5063 44.8688C36.9967 46.6344 33.6508 47.9807 30.7132 49.1615C29.5523 49.6536 28.4488 50.0951 27.5285 50.5365C26.0608 49.2961 24.1959 48.0447 22.2316 46.7227C16.714 43.0193 10.4615 38.8193 10.2452 33.1252C9.93625 24.7142 19.5148 18.7486 27.875 14.4912C34.2114 11.269 39.7201 9.13255 44.7169 7.96503C51.7352 6.32521 57.6633 6.65626 62.3334 8.94495C64.8891 10.1963 66.0853 12.9176 65.3261 15.7161C63.3398 22.9883 55.1098 27.9718 48.0715 30.2141C43.8318 31.5648 40.2233 32.1298 37.0364 31.9444C33.0417 31.7127 29.7797 29.7087 28.3848 28.8546C28.1613 28.702 27.925 28.569 27.6786 28.4573L27.6146 28.4419C27.4883 28.4104 27.3557 28.4144 27.2315 28.4533C27.1073 28.4923 26.9963 28.5647 26.9105 28.6626C26.6236 29.0047 26.7251 29.5454 26.8289 29.8191C28.1862 33.3658 30.9891 35.6059 35.1582 36.4777C36.5226 36.7509 37.9115 36.8833 39.303 36.8727C49.0603 36.8727 61.5102 31.247 66.0831 26.6144C69.2017 23.4584 71.4727 20.2141 72.4129 14.6192C73.395 8.75956 69.4224 4.68759 65.3747 2.81161C55.5379 -1.72825 44.3659 0.0660683 36.7252 2.37021C27.7867 5.06499 18.5393 9.9646 11.3576 15.8177C2.50297 23.028 -0.69723 29.7219 1.84086 35.7361C4.44736 41.9003 10.8036 45.756 16.9502 49.4859C18.9365 50.6887 20.8257 51.8342 22.5274 53.0172C22.0153 53.2666 21.4923 53.5204 20.9604 53.7742C15.8003 56.2747 9.94728 59.0887 6.70074 63.7389C4.34363 67.1267 3.90222 70.4991 5.38976 73.7633C6.18429 75.5002 7.59679 76.6787 9.55884 77.2658C10.5795 77.555 11.6365 77.6955 12.6972 77.6829C16.5176 77.6829 20.722 76.138 23.0107 74.7101C27.054 72.172 29.6737 68.7643 30.7993 64.582C31.8013 60.861 31.5607 57.1642 30.1041 53.8647L35.0589 51.3663C32.6687 59.3116 34.5005 64.0567 36.5133 66.6743C37.2549 67.6387 38.5923 68.2192 40.0865 68.2457C41.5807 68.2722 42.9556 67.7094 43.7325 66.7515C45.2024 64.9307 46.2883 62.8009 47.288 60.6711C47.2351 62.0616 47.3013 63.4697 47.7758 64.6637C48.2018 65.7385 48.9036 66.4514 49.8085 66.725C50.7707 67.0186 51.8985 66.7714 52.9844 66.0298C57.8774 62.6818 61.2232 54.646 63.9114 48.186C64.2932 47.2678 64.6596 46.385 65.0149 45.5596C65.68 47.9397 66.6051 50.2393 67.7737 52.4168C68.0341 52.8892 68.0121 53.0966 67.6589 53.4851C67.127 54.0677 66.3855 54.7718 65.5998 55.5177C63.2206 57.7755 60.2588 60.5939 59.8615 63.0724C59.707 64.0656 60.3912 64.9704 61.4528 65.1757C64.6463 65.8113 68.4932 64.8822 71.7464 62.6928C74.7038 60.7065 75.8161 57.9366 75.0569 54.4848C74.322 51.1611 75.9993 47.0339 80.0426 42.2093C80.7047 44.9747 81.5875 47.2105 82.8058 49.1681L82.7727 49.1946C79.8285 51.7658 75.7941 55.286 76.4209 59.5566C76.4734 59.9627 76.6101 60.3535 76.8222 60.7038C77.0342 61.0542 77.317 61.3565 77.6524 61.5915C78.0108 61.8335 78.4154 61.9988 78.8408 62.077C79.2662 62.1553 79.7031 62.1448 80.1243 62.0461C83.9799 61.2361 86.8822 59.6051 88.9921 57.0648C91.102 54.5246 90.3318 51.7084 89.6211 49.5234C95.1387 48.0271 100.052 48.0646 104.651 49.6338C107.233 50.5166 109.085 51.9666 110.153 53.9684C111.497 56.4866 110.771 58.8106 108.103 60.5122C107.284 61.0353 106.889 61.3553 106.865 61.7592C106.859 61.8529 106.876 61.9466 106.915 62.0323C106.953 62.1179 107.012 62.1931 107.085 62.2514C107.394 62.5052 108.348 62.9466 110.504 61.5893C112.49 60.3423 113.656 58.6451 113.954 56.5131C114.014 55.9253 114.013 55.3329 113.951 54.7453ZM25.7298 60.2761L25.7077 60.5586C25.3634 63.7897 23.7214 66.6059 20.8191 68.9453C18.9961 70.4152 17.0164 71.3179 15.2464 71.49C14.0104 71.6092 13.1122 71.4415 12.5781 70.989C12.1786 70.6513 11.9645 70.1459 11.916 69.4441C11.554 63.8206 20.3733 58.2324 25.3369 56.3939C25.6911 57.6556 25.8241 58.9691 25.7298 60.2761ZM48.3187 44.4164C47.5021 49.071 45.1207 57.8572 41.3776 61.267C41.1988 61.4304 41.0488 61.4877 40.9803 61.4723C40.9119 61.4568 40.859 61.3752 40.8038 61.2516C39.5546 58.356 40.0159 53.4652 41.9073 49.6227C43.3617 46.6609 45.4385 44.6989 47.7603 44.1052C47.8567 44.0786 47.9561 44.0645 48.0561 44.0632C48.1343 44.0577 48.212 44.0787 48.2768 44.1228C48.3041 44.166 48.322 44.2145 48.3292 44.2651C48.3364 44.3157 48.3329 44.3672 48.3187 44.4164ZM66.7452 61.384C66.0412 62.119 65.0767 62.0196 65.304 61.7504L68.8883 57.9455C68.5991 59.2542 67.745 60.3379 66.7452 61.384ZM81.614 58.0933C81.2731 58.2613 80.9043 58.3653 80.5259 58.4001C80.4244 56.3983 82.3644 54.145 84.2779 52.642C84.7921 54.7298 83.7394 56.9368 81.614 58.0933Z"
            fill="#ED4FFB" />
    </symbol>
    <symbol id='vue' viewBox="0 0 89 89">
        <path
            d="M44.5 25.0365L34.8543 8.32983H21.0471L44.5 48.9517L67.9529 8.32983H54.1457L44.5 25.0365Z"
            fill="#5A9F4E" />
        <path
            d="M71.1652 8.32983L44.5 54.5142L17.8348 8.32983H2.73605L44.5 80.6701L86.264 8.32983H71.1652Z"
            fill="#5A9F4E" />
    </symbol>
    <symbol id='gulp' viewBox="0 0 100 100">
        <path
            d="M49.8187 75.2969C46.1191 75.3127 42.43 74.9006 38.825 74.0687C37.7534 73.827 36.7023 73.5021 35.6812 73.0969L38.2219 77.4375L39.2156 91C39.2156 92.5219 44.0469 93.7531 50.0031 93.7531C55.9594 93.7531 60.7906 92.5219 60.7906 91L61.5781 77.2906L63.9812 73.0844C62.9517 73.4961 61.8911 73.8252 60.8094 74.0687C57.2054 74.9004 53.5174 75.3125 49.8187 75.2969ZM64.0625 31.1656C59.398 31.7457 54.7003 32.0181 50 31.9813C45.2997 32.0181 40.602 31.7457 35.9375 31.1656C34.4559 30.9859 32.9923 30.6807 31.5625 30.2531C31.1902 30.1376 30.8292 29.988 30.4844 29.8063L32.8125 51.25C32.9208 50.8812 33.0417 50.5125 33.175 50.1437C33.4451 49.39 33.7581 48.6523 34.1125 47.9344C34.4629 47.2312 34.8552 46.5498 35.2875 45.8937C35.6953 45.2731 36.1464 44.6821 36.6375 44.125C37.0824 43.6165 37.5742 43.1509 38.1062 42.7344C38.5729 42.3679 39.0843 42.0623 39.6281 41.825C40.109 41.6187 40.6268 41.5124 41.15 41.5125C41.743 41.5161 42.324 41.6803 42.8312 41.9875C43.4474 42.3783 43.9668 42.9041 44.35 43.525C44.4525 43.6687 44.5229 43.8329 44.5562 44.0063C44.5843 44.1578 44.599 44.3115 44.6 44.4656C44.6161 44.7537 44.5298 45.0382 44.3562 45.2688C44.2891 45.3591 44.202 45.4326 44.1017 45.4835C44.0014 45.5345 43.8906 45.5615 43.7781 45.5625C43.6658 45.557 43.5562 45.526 43.4577 45.4719C43.3592 45.4177 43.2742 45.3418 43.2094 45.25C42.9864 44.9609 42.7897 44.6524 42.6219 44.3281C42.4625 44.0176 42.2324 43.7489 41.95 43.5438C41.7148 43.3844 41.4372 43.2995 41.1531 43.3C40.6304 43.3279 40.1301 43.5216 39.725 43.8531C39.164 44.275 38.659 44.7664 38.2219 45.3156C37.6919 45.9708 37.2144 46.6667 36.7937 47.3969C36.3426 48.1702 35.9398 48.9707 35.5875 49.7938C35.2494 50.5781 34.9705 51.3866 34.7531 52.2125C34.5592 52.91 34.4542 53.6293 34.4406 54.3531C34.4414 54.5705 34.456 54.7876 34.4844 55.0031C34.5091 55.212 34.5638 55.4162 34.6469 55.6094C34.7158 55.7801 34.8227 55.9329 34.9594 56.0562C35.1051 56.176 35.2896 56.2383 35.4781 56.2312C35.7611 56.2181 36.0367 56.1366 36.2812 55.9937C36.6126 55.8152 36.9265 55.6059 37.2187 55.3688C37.5576 55.0964 37.881 54.8053 38.1875 54.4969C38.5125 54.174 38.8146 53.8458 39.0937 53.5125C39.3729 53.1792 39.6208 52.8604 39.8375 52.5563C40.0217 52.3045 40.1848 52.038 40.325 51.7594L41.2125 49.1031C41.2863 48.8559 41.4347 48.6376 41.6375 48.4781C41.7945 48.363 41.9835 48.2997 42.1781 48.2969C42.2684 48.297 42.3582 48.3118 42.4437 48.3406C42.5363 48.3713 42.6209 48.4223 42.6912 48.4899C42.7615 48.5575 42.8157 48.6399 42.85 48.7313C42.8938 48.8448 42.915 48.9658 42.9125 49.0875C42.914 49.4295 42.8815 49.7707 42.8156 50.1063C42.7532 50.4233 42.6718 50.7364 42.5719 51.0437C42.474 51.3458 42.3646 51.649 42.2437 51.9531C42.1229 52.2573 42.0052 52.576 41.8906 52.9094C41.8344 53.0239 41.7884 53.1431 41.7531 53.2656C41.6865 53.474 41.6052 53.725 41.5094 54.0187C41.4135 54.3125 41.3094 54.65 41.1969 55.0313L40.8531 56.1719C40.7344 56.5594 40.6219 56.9396 40.5156 57.3125C40.4094 57.6854 40.3125 58.0229 40.225 58.325L40.0094 59.0812C39.9531 59.2844 39.9156 59.3937 39.9031 59.4437C39.8643 59.5815 39.8131 59.7153 39.75 59.8438C39.6807 59.9906 39.5981 60.1308 39.5031 60.2625C39.4147 60.3813 39.3094 60.4866 39.1906 60.575C39.0907 60.6567 38.9665 60.7029 38.8375 60.7063C38.7523 60.7134 38.6667 60.6985 38.589 60.6629C38.5112 60.6273 38.444 60.5723 38.3937 60.5031C38.281 60.2712 38.2335 60.0131 38.2562 59.7562V59.5969C38.2533 59.5407 38.2533 59.4843 38.2562 59.4281C38.2967 59.1972 38.3574 58.9703 38.4375 58.75C38.5271 58.4187 38.6312 58.0438 38.75 57.625C38.8687 57.2063 39.0021 56.7729 39.15 56.325C39.2937 55.8771 39.4229 55.476 39.5375 55.1219C39.2 55.499 38.8344 55.874 38.4406 56.2469C38.0592 56.6089 37.6542 56.945 37.2281 57.2531C36.837 57.5373 36.4182 57.7812 35.9781 57.9813C35.5985 58.1599 35.1852 58.2558 34.7656 58.2625C34.3624 58.2734 33.9642 58.1717 33.6156 57.9688C33.5562 57.9344 33.5031 57.8938 33.45 57.8531L34.7469 71.4531C35.0844 72.3 41.4406 74.3781 49.825 74.3781C58.2094 74.3781 64.5719 72.2969 64.9031 71.45L66.7781 55.2813L66.3312 55.6938C65.8491 56.1461 65.3443 56.5738 64.8187 56.975C64.3908 57.3061 63.9251 57.5851 63.4312 57.8062C62.9734 58.0034 62.4797 58.1034 61.9812 58.1C61.5826 58.1265 61.1869 58.0162 60.8594 57.7875C60.7294 57.6842 60.6258 57.5517 60.5568 57.4007C60.4878 57.2497 60.4555 57.0846 60.4625 56.9188V56.8344C60.4598 56.8021 60.4598 56.7697 60.4625 56.7375C60.5068 56.4595 60.6079 56.1936 60.7594 55.9563C60.9486 55.6384 61.1573 55.3326 61.3844 55.0406C61.626 54.724 61.8833 54.4031 62.1562 54.0781C62.4292 53.7531 62.6823 53.4458 62.9156 53.1563C63.1229 52.9015 63.3159 52.6355 63.4937 52.3594C63.6209 52.1874 63.6997 51.9846 63.7219 51.7719C63.7235 51.7309 63.7155 51.6901 63.6987 51.6527C63.6819 51.6153 63.6567 51.5823 63.625 51.5562C63.5323 51.4964 63.4224 51.469 63.3125 51.4781C63.0384 51.4826 62.769 51.55 62.525 51.675C62.2364 51.8183 61.9667 51.9967 61.7219 52.2062C61.4459 52.4408 61.1879 52.6957 60.95 52.9688C60.6996 53.2546 60.4639 53.5528 60.2437 53.8625C60.025 54.1708 59.825 54.4833 59.6437 54.8C59.4625 55.1167 59.3083 55.4052 59.1812 55.6656L59.0187 56.0156C58.9479 56.1656 58.8719 56.3354 58.7906 56.525C58.7094 56.7146 58.6219 56.9083 58.5281 57.1063C58.4365 57.3146 58.3521 57.5031 58.275 57.6719L58.0687 58.1469C58.0083 58.2865 57.9656 58.3823 57.9406 58.4344C57.9156 58.4865 57.8635 58.6146 57.7844 58.8188C57.7114 59.0063 57.6271 59.2271 57.5312 59.4813L57.2187 60.2781L56.9219 61.0687L56.6781 61.725C56.6094 61.9125 56.5625 62.0375 56.5437 62.1094C56.4822 62.2989 56.407 62.4838 56.3187 62.6625C56.2386 62.827 56.1389 62.9812 56.0219 63.1219C55.915 63.2485 55.7858 63.3544 55.6406 63.4344C55.4931 63.5148 55.3273 63.5557 55.1594 63.5531C54.9572 63.5618 54.7577 63.5047 54.5906 63.3906C54.5068 63.3113 54.4428 63.2134 54.4038 63.1049C54.3647 62.9963 54.3516 62.8801 54.3656 62.7656C54.366 62.6098 54.3849 62.4545 54.4219 62.3031C54.4605 62.1442 54.5085 61.9876 54.5656 61.8344C54.6219 61.6781 54.6812 61.5219 54.7437 61.3813C54.8062 61.2406 54.8594 61.0938 54.9094 60.9563C55.2531 60.2021 55.6031 59.4469 55.9594 58.6906C56.3156 57.9344 56.6573 57.1844 56.9844 56.4406C57.0531 56.2844 57.1156 56.1281 57.1812 55.9812L57.1219 56.0406C56.7284 56.4193 56.3109 56.7721 55.8719 57.0969C55.4922 57.3831 55.0825 57.6273 54.65 57.825C54.2809 57.9979 53.8794 58.0906 53.4719 58.0969C53.2476 58.1039 53.0246 58.0612 52.8187 57.9719C52.6532 57.8961 52.5092 57.7801 52.4 57.6344C52.2905 57.482 52.2139 57.3086 52.175 57.125C52.175 57.0594 52.15 56.9875 52.1406 56.9188C52.0281 57.0063 51.9156 57.0906 51.8031 57.1719C51.4376 57.4335 51.0471 57.6586 50.6375 57.8438C50.3151 57.9989 49.9638 58.0851 49.6062 58.0969C49.4671 58.1009 49.3288 58.0751 49.2005 58.0212C49.0722 57.9673 48.957 57.8865 48.8625 57.7844C48.6425 57.4845 48.5412 57.1138 48.5781 56.7438C48.5858 56.3363 48.6371 55.9309 48.7312 55.5344C48.5496 55.8501 48.3405 56.1492 48.1062 56.4281C47.8538 56.7332 47.5688 57.0099 47.2562 57.2531C46.9311 57.5049 46.5711 57.7081 46.1875 57.8563C45.7766 58.0134 45.3399 58.0919 44.9 58.0875C44.6953 58.0885 44.4915 58.0622 44.2937 58.0094C44.1054 57.959 43.9311 57.866 43.7844 57.7375C43.6283 57.5953 43.5074 57.4188 43.4312 57.2219C43.3342 56.9634 43.2886 56.6885 43.2969 56.4125C43.2969 56.4125 43.2969 56.2906 43.3344 56.0687C43.3899 55.7133 43.4713 55.3623 43.5781 55.0188C43.7156 54.5396 43.924 53.9146 44.2031 53.1438C44.4823 52.3729 44.8865 51.45 45.4156 50.375C45.5133 50.1303 45.6726 49.915 45.8781 49.75C46.0429 49.6286 46.2422 49.5629 46.4469 49.5625C46.541 49.5635 46.6345 49.5771 46.725 49.6031C46.8209 49.6295 46.9117 49.6718 46.9937 49.7281C47.0755 49.7843 47.1438 49.858 47.1937 49.9438C47.2475 50.0389 47.2734 50.1471 47.2687 50.2563C47.2694 50.3291 47.26 50.4017 47.2406 50.4719C47.1898 50.6464 47.1207 50.815 47.0344 50.975C46.9302 51.1833 46.8073 51.4208 46.6656 51.6875C46.5239 51.9542 46.376 52.2427 46.2219 52.5531C46.0656 52.8615 45.9208 53.1813 45.7875 53.5125C45.6542 53.8433 45.5394 54.1814 45.4437 54.525C45.351 54.8509 45.2965 55.1865 45.2812 55.525C45.2804 55.6553 45.3138 55.7835 45.3781 55.8969C45.4091 55.9515 45.4548 55.9963 45.5101 56.0262C45.5654 56.056 45.6279 56.0697 45.6906 56.0656C46.1188 56.0609 46.5341 55.9185 46.875 55.6594C47.267 55.3716 47.6172 55.0309 47.9156 54.6469C48.2375 54.2374 48.5259 53.8026 48.7781 53.3469C49.0365 52.8844 49.251 52.4604 49.4219 52.075C49.5447 51.8075 49.6492 51.5318 49.7344 51.25C49.8241 50.9738 49.9284 50.7026 50.0469 50.4375C50.1397 50.2122 50.265 50.0016 50.4187 49.8125C50.4813 49.7335 50.5612 49.6698 50.6522 49.6265C50.7432 49.5832 50.8429 49.5613 50.9437 49.5625C51.0486 49.5586 51.1528 49.5802 51.2475 49.6254C51.3422 49.6706 51.4245 49.738 51.4875 49.8219C51.6235 50.0013 51.694 50.2218 51.6875 50.4469C51.6755 50.6391 51.6322 50.828 51.5594 51.0063C51.474 51.2438 51.3698 51.5146 51.2469 51.8188C51.124 52.1229 50.9823 52.449 50.8219 52.7969C50.6698 53.1448 50.5281 53.4969 50.3969 53.8531C50.2745 54.1974 50.1701 54.5479 50.0844 54.9031C50.0026 55.2154 49.9596 55.5366 49.9562 55.8594C49.9493 55.9155 49.9555 55.9724 49.9742 56.0258C49.993 56.0791 50.0239 56.1273 50.0645 56.1667C50.1051 56.2061 50.1542 56.2355 50.2081 56.2527C50.262 56.2698 50.3191 56.2743 50.375 56.2656C50.6313 56.2502 50.8815 56.181 51.1094 56.0625C51.4364 55.9057 51.7455 55.714 52.0312 55.4906C52.1125 55.4281 52.1937 55.3656 52.2719 55.3C52.3527 54.9527 52.4571 54.6113 52.5844 54.2781C52.8073 53.6906 53.0333 53.1063 53.2625 52.525L53.8875 50.9313L56.7781 43.6406C56.8601 43.3875 57.0225 43.168 57.2406 43.0156C57.4154 42.9009 57.6191 42.8381 57.8281 42.8344C58.0239 42.8341 58.2137 42.9015 58.3656 43.025C58.4524 43.1028 58.5196 43.1999 58.562 43.3085C58.6043 43.417 58.6205 43.534 58.6094 43.65C58.6071 43.7963 58.5796 43.9412 58.5281 44.0781C58.4677 44.244 58.3988 44.4067 58.3219 44.5656C58.1635 44.9198 57.974 45.3531 57.7531 45.8656C57.5323 46.3781 57.2969 46.9354 57.0469 47.5375C56.7948 48.1396 56.5375 48.7646 56.275 49.4125L55.5031 51.3156C55.2531 51.9406 55.0177 52.526 54.7969 53.0719L54.2281 54.5125C54.1492 54.711 54.0804 54.9133 54.0219 55.1188C53.959 55.3213 53.9253 55.5317 53.9219 55.7437C53.9172 55.8377 53.9366 55.9313 53.9781 56.0156C54.0013 56.0516 54.034 56.0803 54.0727 56.0986C54.1114 56.1168 54.1544 56.1238 54.1969 56.1188C54.3715 56.1074 54.5419 56.0595 54.6969 55.9781C54.9223 55.8702 55.1396 55.7459 55.3469 55.6063C55.5802 55.4521 55.8219 55.275 56.0719 55.075C56.3219 54.875 56.5719 54.6667 56.8219 54.45C57.0698 54.2417 57.3073 54.0271 57.5344 53.8063C57.7614 53.5854 57.9635 53.3875 58.1406 53.2125C58.1823 53.1704 58.2324 53.1374 58.2875 53.1156C58.3937 52.8031 58.4937 52.4906 58.5781 52.1781C58.6281 52.0427 58.6979 51.85 58.7875 51.6C58.8793 51.3501 58.9836 51.105 59.1 50.8656C59.2043 50.6429 59.3343 50.4331 59.4875 50.2406C59.542 50.1681 59.6122 50.1088 59.6928 50.0671C59.7734 50.0254 59.8624 50.0025 59.9531 50C60.0523 49.991 60.1523 50.0018 60.2473 50.0319C60.3423 50.0619 60.4303 50.1106 60.5062 50.175C60.5675 50.2453 60.6143 50.3271 60.6438 50.4156C60.6733 50.5041 60.6849 50.5976 60.6781 50.6906C60.676 50.7628 60.6698 50.8348 60.6594 50.9063C60.6594 51.0031 60.6312 51.1094 60.6125 51.2187C60.5937 51.3281 60.5719 51.4312 60.55 51.5312C60.5349 51.6047 60.514 51.6768 60.4875 51.7469C60.7229 51.4906 60.9771 51.2365 61.25 50.9844C61.5171 50.7368 61.8011 50.5081 62.1 50.3C62.3808 50.1035 62.6814 49.937 62.9969 49.8031C63.2863 49.6791 63.5976 49.6143 63.9125 49.6125C64.1241 49.6128 64.3345 49.6433 64.5375 49.7031C64.7357 49.7593 64.9228 49.8491 65.0906 49.9688C65.2531 50.0853 65.3885 50.2356 65.4875 50.4094C65.5939 50.6001 65.6468 50.8161 65.6406 51.0344C65.6331 51.3774 65.5532 51.715 65.4062 52.025C65.2405 52.393 65.044 52.7463 64.8187 53.0813C64.5833 53.4354 64.3292 53.7802 64.0562 54.1156C63.7833 54.451 63.5271 54.7563 63.2875 55.0313L62.6844 55.7312C62.572 55.841 62.4855 55.9745 62.4312 56.1219C62.4299 56.2045 62.4614 56.2843 62.5187 56.3438C62.6 56.4081 62.7031 56.4383 62.8062 56.4281C62.9776 56.4061 63.1414 56.344 63.2844 56.2469C63.5917 56.0583 63.8861 55.8495 64.1656 55.6219C64.5448 55.324 65.025 54.925 65.6062 54.425C66.0062 54.0813 66.4719 53.6719 67 53.2062L69.525 29.8312C69.1802 30.0131 68.8192 30.1627 68.4469 30.2781C67.0132 30.6978 65.5465 30.9947 64.0625 31.1656ZM50 25.625C39.0875 25.625 30.2437 26.8437 30.2437 28.35C30.2437 29.8562 39.0625 31.0688 50 31.0688C60.9375 31.0688 69.7562 29.85 69.7562 28.3437C69.7562 26.8375 60.9 25.625 50 25.625ZM57.8875 29.1469C57.8875 29.5 56.8375 29.7719 55.5406 29.7719C54.2437 29.7719 53.1937 29.4844 53.1937 29.1469C53.1937 28.8094 54.2437 28.5219 55.5406 28.5219C56.8375 28.5219 57.8781 28.7875 57.8781 29.1406L57.8875 29.1469Z"
            fill="#DA4648" />
        <path
            d="M53.6563 28.8562C53.6448 28.8728 53.6383 28.8923 53.6375 28.9125C53.6375 29.1406 54.4844 29.325 55.5125 29.325C56.5406 29.325 57.3875 29.1406 57.3875 28.9125L59.8563 18.9125L69.675 8.54685C69.8813 8.31247 69.4625 7.58435 68.7625 6.95935C68.0625 6.33435 67.3063 6.12497 67.0719 6.36247L56.6313 17.3718L53.6563 28.8562Z"
            fill="#DA4648" />
    </symbol>
    <symbol id='php' viewBox="0 0 103 103">
        <g clip-path="url(#clip0_2_89)">
            <path d="M34.264 70.3715C33.7812 67.2211 32.4534 64.6622 29.2307 63.4248C27.9693 62.942 26.877 62.0609 25.6337 61.5057C24.2215 60.872 22.7851 60.2684 21.2944 59.8762C20.1659 59.5744 19.1157 60.0814 18.4458 61.0711C17.8122 62.0005 18.2708 62.8756 18.8019 63.6542C19.3994 64.5293 20.0633 65.3621 20.7332 66.1829C21.8436 67.5468 23.0205 68.8565 24.1008 70.2387C25.1328 71.5604 26.0139 73.027 25.863 74.7772C25.5311 78.6155 23.793 81.7962 20.9927 84.3851C20.6849 84.6627 20.1417 84.8619 19.7434 84.8257C17.957 84.6326 16.3335 83.9566 15.0239 82.7074C13.5212 81.277 13.7505 79.5932 15.549 78.5491C15.9775 78.3017 16.4241 78.0724 16.8164 77.7706C17.9147 76.9438 18.2829 75.5316 17.6854 74.3064C17.4018 73.715 17.0819 73.0752 16.6112 72.6468C14.3118 70.5526 12.0544 68.3918 9.59207 66.4849C3.6231 61.8497 0.557439 55.7181 0.0864953 48.2947C-0.444598 40.0505 1.46855 32.3556 5.81989 25.3124C7.46749 22.6388 9.38667 20.0918 12.3318 18.7703C14.3355 17.8711 16.5323 17.3641 18.675 16.8028C24.5715 15.2518 30.522 14.087 36.6599 15.1251C41.9467 16.0122 45.8155 18.7341 47.5898 23.9304C48.7546 27.3282 49.0322 30.8406 48.6701 34.4378C47.958 41.5051 42.7375 47.824 35.9297 49.6949C32.9785 50.5036 31.3671 50.0509 29.5928 47.5946C28.3194 45.8263 27.2632 43.9011 26.1226 42.036C25.9536 41.7584 25.8329 41.4386 25.688 41.1428C25.5492 40.8471 25.3983 40.5635 25.2535 40.2677C25.682 43.3336 26.3941 46.285 28.0659 48.9161C28.9712 50.3465 30.1782 51.4026 31.9465 51.5595C38.4524 52.1449 43.9446 50.0085 47.8433 44.7758C52.2067 38.9215 53.1665 32.1863 51.905 25.095C51.6575 23.6948 51.2411 22.3248 50.9454 20.9307C50.7462 20.0315 51.1023 19.3676 51.9894 19.0538C52.3998 18.915 52.8223 18.8003 53.2327 18.7158C58.5559 17.5691 63.9393 17.1889 69.3649 17.7381C75.5209 18.3537 81.3448 20.0435 86.5532 23.4657C94.7069 28.8309 99.7583 36.4656 102.504 45.6996C102.903 47.0394 102.963 48.5059 102.999 49.9184C103.023 50.8598 102.42 51.1073 101.702 50.5158C100.911 49.8701 100.187 49.1338 99.5048 48.3734C98.8711 47.6552 98.3642 46.8344 97.7486 46.08C97.2718 45.4886 96.8554 45.5791 96.6261 46.3154C96.4812 46.762 96.3545 47.2025 96.2277 47.6491C94.8034 52.7307 92.5584 57.3657 88.9192 61.2707C88.4122 61.8199 87.9596 62.6346 87.8992 63.3589C87.7423 65.3625 87.6276 67.4084 87.8208 69.4061C88.2191 73.6973 88.8407 77.97 89.3235 82.2551C89.5951 84.6752 88.8166 86.0995 86.5413 86.9386C84.942 87.524 83.228 87.9525 81.5382 88.0732C78.8465 88.2603 76.1307 88.1275 73.4269 88.1275C73.3545 85.11 73.614 82.1465 70.7775 80.5291C71.3267 78.29 71.9604 76.1656 72.3406 73.993C72.6544 72.1885 72.3889 70.4142 71.1215 68.9355C69.9326 67.5414 68.4419 67.1612 67.0777 67.9578C62.9678 70.3538 58.6947 70.3659 54.3434 68.7967C52.3457 68.0725 50.9516 68.4829 49.847 70.3055C48.658 72.2669 48.1571 74.4698 48.2899 76.6969C48.4589 79.5033 48.9477 82.2795 49.3219 85.0737C49.5271 86.6368 49.3521 87.0412 47.801 87.4395C44.355 88.3146 40.8485 88.4112 37.3238 88.1275C37.1367 88.1094 36.9496 88.031 36.8289 88.0008C36.6539 85.0737 36.9617 82.0318 33.4734 80.4748C35.0184 77.1977 34.8072 73.7999 34.2761 70.4021L34.264 70.3719V70.3715ZM13.4304 58.8866C13.9434 58.4038 14.3538 57.6494 14.4986 56.9553C14.8608 55.2172 13.5572 52.8876 12.0484 52.2419C11.2457 51.8918 10.5456 52.0186 9.97832 52.6583C8.59627 54.2214 7.23232 55.8026 5.87421 57.3901C5.64487 57.6617 5.43968 57.9815 5.27673 58.3014C4.73357 59.3455 5.05343 60.1059 6.21218 60.3896C6.91226 60.5646 7.63648 60.6008 8.35466 60.7034C10.2256 60.5223 12.0361 60.2085 13.4302 58.8928V58.8868L13.4304 58.8866ZM13.5873 41.5112C13.5813 40.2679 12.5433 39.2299 11.3181 39.2239C10.0568 39.2178 8.97045 40.3464 9.01269 41.5896C9.06701 42.8389 10.1051 43.8408 11.3483 43.8166C12.6036 43.7985 13.6054 42.7725 13.5934 41.5172L13.5873 41.5112Z" fill="#3563BD"/>
            </g>
            <defs>
            <clipPath id="clip0_2_89">
            <rect width="103" height="103" fill="white"/>
            </clipPath>
            </defs>
    </symbol>
    <symbol id='laravell' viewBox="0 0 83 83">
        <g clip-path="url(#clip0_13_4)">
            <path d="M81.9576 38.0341C81.4259 37.4619 77.6099 32.7996 75.5527 30.2869C74.4585 28.9511 73.5944 27.8958 73.2313 27.4581L73.2021 27.4224L73.1697 27.3884C72.3235 26.4433 71.1206 25.3604 69.3147 25.3604C69.0211 25.3642 68.7281 25.388 68.4377 25.4317C68.3777 25.4398 68.3161 25.4496 68.2513 25.456C67.8541 25.4998 66.6205 25.6992 63.6895 26.1823C61.42 26.5535 57.9979 27.1177 57.4791 27.1663L57.364 27.176L57.2522 27.1971C55.6311 27.4856 54.5579 28.2054 54.0813 29.3353C53.83 29.9319 53.5593 31.1428 54.5579 32.5548C54.8059 32.9147 55.6651 34.1046 57.1419 36.1488C58.1243 37.5105 59.2283 39.0376 60.1815 40.3636L42.1322 44.5801L24.4234 15.5706L24.391 15.5155L24.3537 15.462L24.2824 15.3566C23.5577 14.2932 22.6564 12.9688 20.0529 12.9688C19.8697 12.9688 19.6785 12.9688 19.4645 12.9866C18.7188 13.0271 15.9921 13.2411 12.8358 13.4907C9.35208 13.7647 4.58445 14.1392 3.96519 14.1554H3.84685L3.71878 14.1684C2.2371 14.3126 1.16232 14.9141 0.525228 15.9516C-0.536588 17.6845 0.295033 19.6298 0.567377 20.2685C1.11369 21.5605 6.08882 32.049 10.4771 41.3071C13.3951 47.4575 16.4071 53.8171 16.6535 54.3812C17.0868 55.435 17.8286 56.3332 18.7816 56.9578C19.7346 57.5825 20.8542 57.9043 21.9934 57.8811C22.531 57.8787 23.0668 57.819 23.5918 57.7028H23.6258L23.6582 57.6947C25.9051 57.1468 33.033 55.3377 38.1184 54.0327C38.4264 54.5709 38.7506 55.1399 39.091 55.7251C42.6461 61.9663 45.235 66.4811 46.0877 67.6337C46.5254 68.248 47.8223 70.0312 50.2636 70.0312C51.1487 70.0312 51.9593 69.8043 52.8152 69.5628L53.0633 69.493H53.0827C54.7897 69.0067 77.511 61.0374 78.6749 60.5203L78.7106 60.5041C79.5925 60.1134 80.925 59.5233 81.3335 58.0076C81.601 57.0155 81.3627 56.0088 80.6235 55.0151L80.6121 55.0005L80.6008 54.9859C80.463 54.8076 79.9523 54.1413 79.2601 53.2189C77.7801 51.2622 75.389 48.1011 73.288 45.3501C76.1039 44.6206 79.5779 43.7112 80.3203 43.4777C82.1797 42.9217 82.7422 41.7448 82.9141 41.0899C83.0421 40.5792 83.2091 39.2742 81.9576 38.0341ZM30.0826 47.4672C27.1955 48.1432 25.1837 48.615 23.9403 48.91C22.859 46.7475 20.7403 42.4824 18.6718 38.3194C13.8506 28.6058 11.3606 23.6047 10.0508 20.9899L11.372 20.8764C13.5345 20.69 16.4962 20.4355 18.1449 20.2977C20.8618 24.8789 30.1929 40.61 33.756 46.6081L30.0826 47.4672ZM58.964 58.2702C55.0394 59.5671 52.9125 60.2755 51.7631 60.6597C50.7419 58.9835 48.495 55.2258 46.4994 51.875L65.2555 47.096C66.066 48.2 67.6174 50.2928 70.6797 54.3796C67.7504 55.3587 62.866 56.9766 58.964 58.2702ZM68.0211 38.5529L64.1694 33.4415C66.3854 33.0541 67.6612 32.8304 68.4085 32.6958L70.3538 35.108L72.2894 37.5105C70.9601 37.8331 69.4136 38.2108 68.0211 38.5529Z" fill="#FF2121"/>
            </g>
            <defs>
            <clipPath id="clip0_13_4">
            <rect width="83" height="83" fill="white"/>
            </clipPath>
            </defs>
    </symbol>
</svg>